<svg xmlns="http://www.w3.org/2000/svg" xmlns:xlink="http://www.w3.org/1999/xlink" aria-hidden="true" role="img" class="iconify iconify--logos" width="35.93" height="32" preserveAspectRatio="xMidYMid meet" viewBox="0 0 256 228"><path fill="#00D8FF" d="M210.483 73.824a171.49 171.49 0 0 0-8.24-2.597c.465-1.9.893-3.777 1.273-5.621c6.238-30.281 2.16-54.676-11.769-62.708c-13.355-7.7-35.196.329-57.254 19.526a171.23 171.23 0 0 0-6.375 5.848a155.866 155.866 0 0 0-4.241-3.917C100.759 3.829 77.587-4.822 63.673 3.233C50.33 10.957 46.379 33.89 51.986 62.588a170.974 170.974 0 0 0 1.892 8.48c-3.28.932-6.445 1.924-9.474 2.98C17.309 83.498 0 98.307 0 113.668c0 15.865 18.582 31.778 46.812 41.427a145.52 145.52 0 0 0 6.921 2.165a167.467 167.467 0 0 0-2.01 9.138c-5.354 28.2-1.173 50.591 12.134 58.266c13.744 7.926 36.812-.22 59.273-19.855a145.567 145.567 0 0 0 5.342-4.923a168.064 168.064 0 0 0 6.92 6.314c21.758 18.722 43.246 26.282 56.54 18.586c13.731-7.949 18.194-32.003 12.4-61.268a145.016 145.016 0 0 0-1.535-6.842c1.62-.48 3.21-.974 4.76-1.488c29.348-9.723 48.443-25.443 48.443-41.52c0-15.417-17.868-30.326-45.517-39.844Zm-6.365 70.984c-1.4.463-2.836.91-4.3 1.345c-3.24-10.257-7.612-21.163-12.963-32.432c5.106-11 9.31-21.767 12.459-31.957a145.95 145.95 0 0 1 7.535 2.32c22.506 8.19 38.228 21.465 38.228 31.377c0 10.548-17.06 24.397-40.959 29.347Zm-11.514 14.426c3.037 12.583 5.236 13.18 4.92 24.975c1.137 42.472-6.393 55.17-15.085 60.19c-9.22 5.326-25.193-.903-43.316-16.461a142.587 142.587 0 0 1-6.437-5.87c7.033-7.443 14.09-16.05 20.878-25.643C164.514 152.495 173.266 143.374 180.964 134.178a142.476 142.476 0 0 1 17.07 10.436Zm-65.478 59.36c-6.905 6.542-13.776 11.905-20.19 15.862c-22.14 13.66-40.774 14.706-49.29 9.787c-9.044-5.224-12.985-22.66-8.64-46.535a141.889 141.889 0 0 1 1.86-8.468c10.595 2.588 22.03 4.42 34.04 5.426c7.106 9.458 14.608 18.248 22.28 26.11a142.186 142.186 0 0 1 5.34-2.182Zm-68.47-68.49c-22.506-8.19-38.228-21.465-38.228-31.377c0-26.276 65.44-46.47 63.29-39.27c-2.836 9.487-7.46 46.38 6.266 56.08c-10.725 3.152-21.61 8.25-31.328 14.567Zm2.154-71.968c-4.564-24.555-.737-43.652 8.487-48.974c9.753-5.632 27.342.866 45.974 17.645a142.28 142.28 0 0 1 3.934 3.63c-7.174 7.564-14.324 16.274-21.145 25.96c-11.868 1.032-23.168 2.86-33.61 5.403a142.092 142.092 0 0 1-3.64-3.664Zm43.636 12.326c5.936-8.532 12.195-16.478 18.614-23.657c7.482 6.478 14.842 7.496 22.658 13.076c-12.16 1.042-8.36 1.228-20.328 2.768c-6.876 1.66-13.855 4.52-20.944 7.813ZM128.3 194.812c-6.156-7.145-12.197-15.104-17.945-23.675c5.675.237 11.507.36 17.444.36c6.077 0 12.056-.136 17.872-.397c-5.68 8.49-11.683 16.395-17.87 23.712Zm55.063-50.286c-4.61 7.92-3.524 9.26-15.222 24.375c-12.86-1.01-7.44.696-26.14.696c-18.847 0-25.083-1.813-38.19-2.898c-7.176-10.164-9.04-12.628-15.653-23.878c-3.454-5.873-6.577-11.682-9.378-17.366c2.772-5.63 5.86-11.393 9.28-17.22c6.543-11.158 8.282-13.572 15.358-23.623c12.83-1.033 7.372-.677 26.019-.677c18.703 0 25.11 1.755 38.166 2.866c7.146 10.11 8.952 12.577 15.519 23.649c3.457 5.82 6.594 11.59 9.398 17.277c-2.826 5.743-5.986 11.567-9.47 17.418l.313-1.619ZM177.524 69.2c-4.166-7.142-8.59-13.98-13.176-20.432c10.573 1.213 20.678 3.088 30.07 5.55c-2.847 9.389-6.51 19.4-10.948 29.756c-1.728-5.078-3.7-10.1-5.946-14.874Zm-49.1-33.308c6.524 7.05 13.052 15.02 19.326 23.685c-6.344-.27-12.816-.408-19.382-.408c-6.413 0-12.757.127-18.986.376c6.393-8.798 12.887-16.787 19.042-23.653ZM79.613 69.13c-2.176 4.636-4.093 9.507-5.78 14.433c-4.525-10.495-8.248-20.6-11.118-30.033c9.342-2.425 19.39-4.275 29.902-5.476a230.826 230.826 0 0 0-12.504 21.076h-.5ZM67 113.668c0-9.912 15.722-23.187 38.228-31.377c1.464.479 2.973.968 4.514 1.475c-3.3 10.26-5.629 21.28-6.877 32.548c-4.682 11.298-3.31 22.302-6.17 33.482c-1.666.474-3.293.976-4.874 1.493C69.87 143.123 67 124.216 67 113.668Zm42.662 10.832c1.04-8.81 2.77-17.725 5.164-26.507c3.746 7.675 8.033 15.633 12.813 23.625c4.924 8.224 10.203 15.988 15.67 23.184c-8.498-.513-16.81-1.506-24.793-2.933c-3.473-5.369-6.564-11.16-9.167-17.369h.313Zm55.987 22.052c8.42.62 16.543 1.685 24.26 3.167c-3.132 9.204-7.122 18.924-11.86 28.825c-1.64-4.482-3.523-9.102-5.636-13.82c-2.086-4.664-4.334-9.258-6.764-13.672v-4.5ZM128 90.808c12.946 0 23.448 10.502 23.448 23.448c0 12.946-10.502 23.448-23.448 23.448c-12.946 0-23.448-10.502-23.448-23.448c0-12.946 10.502-23.448 23.448-23.448Z"></path></svg>
